<svg xmlns="http://www.w3.org/2000/svg" width="1000" height="1000" viewBox="0 0 1000 1000">
  <path d="M 563.86 537.38 L 557.63 543.61 L 557.63 546.73 L 551.40 552.96 L 551.40 556.07 L 545.17 562.31 L 545.17 565.42 L 532.71 577.88 L 532.71 581.00 L 523.36 590.34 L 523.36 602.80 L 526.48 605.92 L 526.48 609.03 L 529.60 612.15 L 529.60 618.38 L 532.71 621.50 L 532.71 627.73 L 535.83 630.84 L 535.83 640.19 L 538.94 643.30 L 538.94 652.65 L 542.06 655.76 L 542.06 677.57 L 545.17 680.69 L 545.17 696.26 L 542.06 699.38 L 542.06 718.07 L 538.94 721.18 L 538.94 730.53 L 535.83 733.64 L 535.83 736.76 L 532.71 739.88 L 532.71 749.22 L 529.60 752.34 L 529.60 755.45 L 526.48 758.57 L 526.48 761.68 L 523.36 764.80 L 523.36 767.91 L 520.25 771.03 L 520.25 774.14 L 517.13 777.26 L 517.13 780.37 L 514.02 783.49 L 514.02 786.60 L 507.79 792.83 L 507.79 795.95 L 504.67 799.07 L 504.67 802.18 L 495.33 811.53 L 495.33 814.64 L 492.21 817.76 L 492.21 820.87 L 482.87 830.22 L 482.87 833.33 L 476.64 839.56 L 476.64 842.68 L 454.83 864.49 L 454.83 867.60 L 448.60 873.83 L 445.48 873.83 L 439.25 880.06 L 439.25 883.18 L 436.14 886.29 L 433.02 886.29 L 401.87 917.45 L 404.98 920.56 L 498.44 920.56 L 501.56 917.45 L 504.67 917.45 L 504.67 914.33 L 517.13 901.87 L 517.13 898.75 L 529.60 886.29 L 529.60 883.18 L 535.83 876.95 L 535.83 873.83 L 538.94 870.72 L 542.06 870.72 L 542.06 867.60 L 548.29 861.37 L 548.29 858.26 L 554.52 852.02 L 554.52 848.91 L 557.63 845.79 L 557.63 842.68 L 560.75 839.56 L 560.75 836.45 L 566.98 830.22 L 566.98 823.99 L 570.09 820.87 L 570.09 817.76 L 573.21 814.64 L 573.21 811.53 L 576.32 808.41 L 576.32 805.30 L 579.44 802.18 L 579.44 795.95 L 582.55 792.83 L 582.55 789.72 L 585.67 786.60 L 585.67 777.26 L 588.79 774.14 L 588.79 767.91 L 591.90 764.80 L 591.90 755.45 L 595.02 752.34 L 595.02 742.99 L 598.13 739.88 L 598.13 724.30 L 601.25 721.18 L 601.25 705.61 L 604.36 702.49 L 604.36 637.07 L 601.25 633.96 L 601.25 618.38 L 598.13 615.26 L 598.13 605.92 L 595.02 602.80 L 595.02 593.46 L 591.90 590.34 L 591.90 584.11 L 588.79 581.00 L 588.79 574.77 L 585.67 571.65 L 585.67 568.54 L 582.55 565.42 L 582.55 562.31 L 579.44 559.19 L 579.44 556.07 L 573.21 549.84 L 573.21 546.73 Z" fill="#3dae46" />
  <path d="M 931.46 440.81 L 928.35 443.93 L 919.00 443.93 L 915.89 447.04 L 912.77 447.04 L 909.66 450.16 L 906.54 450.16 L 903.43 453.27 L 900.31 453.27 L 894.08 459.50 L 890.97 459.50 L 878.50 471.96 L 878.50 475.08 L 872.27 481.31 L 872.27 484.42 L 869.16 487.54 L 869.16 500.00 L 878.50 509.35 L 881.62 509.35 L 884.74 512.46 L 887.85 512.46 L 890.97 515.58 L 903.43 515.58 L 906.54 518.69 L 937.69 518.69 L 940.81 515.58 L 950.16 515.58 L 953.27 512.46 L 959.50 512.46 L 962.62 509.35 L 965.73 509.35 L 971.96 503.12 L 975.08 503.12 L 990.65 487.54 L 990.65 484.42 L 996.88 478.19 L 996.88 475.08 L 1000.00 471.96 L 1000.00 462.62 L 996.88 459.50 L 996.88 456.39 L 993.77 456.39 L 987.54 450.16 L 984.42 450.16 L 981.31 447.04 L 978.19 447.04 L 975.08 443.93 L 968.85 443.93 L 965.73 440.81 Z" fill="#3dae46" />
  <path d="M 65.42 400.31 L 62.31 403.43 L 59.19 403.43 L 56.07 406.54 L 52.96 406.54 L 49.84 409.66 L 46.73 409.66 L 40.50 415.89 L 40.50 431.46 L 43.61 434.58 L 43.61 437.69 L 46.73 440.81 L 46.73 443.93 L 56.07 453.27 L 56.07 456.39 L 62.31 462.62 L 65.42 462.62 L 74.77 471.96 L 77.88 471.96 L 81.00 475.08 L 87.23 475.08 L 90.34 478.19 L 96.57 478.19 L 99.69 481.31 L 137.07 481.31 L 140.19 478.19 L 149.53 478.19 L 152.65 475.08 L 155.76 475.08 L 158.88 471.96 L 161.99 471.96 L 168.22 465.73 L 168.22 462.62 L 165.11 459.50 L 165.11 450.16 L 161.99 447.04 L 161.99 443.93 L 158.88 440.81 L 158.88 437.69 L 133.96 412.77 L 127.73 412.77 L 124.61 409.66 L 121.50 409.66 L 118.38 406.54 L 115.26 406.54 L 112.15 403.43 L 105.92 403.43 L 102.80 400.31 Z" fill="#3dae46" />
  <path d="M 77.88 285.05 L 74.77 288.16 L 74.77 297.51 L 71.65 300.62 L 71.65 313.08 L 68.54 316.20 L 68.54 325.55 L 65.42 328.66 L 65.42 341.12 L 68.54 344.24 L 71.65 344.24 L 74.77 347.35 L 81.00 347.35 L 84.11 350.47 L 87.23 350.47 L 90.34 353.58 L 96.57 353.58 L 99.69 356.70 L 105.92 356.70 L 109.03 359.81 L 115.26 359.81 L 118.38 362.93 L 121.50 362.93 L 124.61 366.04 L 130.84 366.04 L 133.96 369.16 L 137.07 369.16 L 140.19 372.27 L 143.30 372.27 L 149.53 378.50 L 152.65 378.50 L 158.88 384.74 L 161.99 384.74 L 174.45 397.20 L 177.57 397.20 L 208.72 428.35 L 208.72 431.46 L 218.07 440.81 L 218.07 443.93 L 224.30 450.16 L 224.30 453.27 L 227.41 456.39 L 227.41 459.50 L 230.53 462.62 L 230.53 465.73 L 233.64 468.85 L 233.64 471.96 L 236.76 475.08 L 236.76 478.19 L 239.88 481.31 L 239.88 487.54 L 242.99 490.65 L 242.99 500.00 L 246.11 503.12 L 246.11 512.46 L 249.22 515.58 L 249.22 518.69 L 246.11 521.81 L 196.26 521.81 L 193.15 518.69 L 152.65 518.69 L 149.53 521.81 L 121.50 521.81 L 118.38 524.92 L 96.57 524.92 L 93.46 528.04 L 81.00 528.04 L 77.88 531.15 L 65.42 531.15 L 62.31 534.27 L 56.07 534.27 L 52.96 537.38 L 40.50 537.38 L 37.38 540.50 L 28.04 540.50 L 24.92 543.61 L 18.69 543.61 L 15.58 546.73 L 6.23 546.73 L 3.12 549.84 L 0.00 549.84 L 0.00 552.96 L 3.12 556.07 L 3.12 559.19 L 6.23 562.31 L 6.23 568.54 L 9.35 571.65 L 9.35 574.77 L 12.46 577.88 L 12.46 584.11 L 15.58 587.23 L 15.58 590.34 L 18.69 593.46 L 18.69 596.57 L 21.81 599.69 L 21.81 602.80 L 24.92 605.92 L 28.04 602.80 L 43.61 602.80 L 46.73 599.69 L 56.07 599.69 L 59.19 596.57 L 68.54 596.57 L 71.65 593.46 L 84.11 593.46 L 87.23 590.34 L 102.80 590.34 L 105.92 587.23 L 118.38 587.23 L 121.50 584.11 L 140.19 584.11 L 143.30 581.00 L 236.76 581.00 L 239.88 584.11 L 252.34 584.11 L 255.45 587.23 L 264.80 587.23 L 267.91 590.34 L 277.26 590.34 L 280.37 593.46 L 289.72 593.46 L 292.83 596.57 L 299.07 596.57 L 302.18 599.69 L 305.30 599.69 L 308.41 602.80 L 314.64 602.80 L 317.76 605.92 L 320.87 605.92 L 323.99 609.03 L 327.10 609.03 L 330.22 612.15 L 336.45 612.15 L 339.56 615.26 L 342.68 615.26 L 348.91 621.50 L 355.14 621.50 L 364.49 630.84 L 370.72 630.84 L 373.83 633.96 L 376.95 633.96 L 380.06 630.84 L 380.06 621.50 L 383.18 618.38 L 383.18 609.03 L 386.29 605.92 L 386.29 593.46 L 389.41 590.34 L 389.41 584.11 L 392.52 581.00 L 392.52 574.77 L 386.29 568.54 L 380.06 568.54 L 376.95 565.42 L 373.83 565.42 L 370.72 562.31 L 364.49 562.31 L 361.37 559.19 L 358.26 559.19 L 355.14 556.07 L 348.91 556.07 L 345.79 552.96 L 339.56 552.96 L 336.45 549.84 L 333.33 549.84 L 330.22 546.73 L 327.10 546.73 L 323.99 543.61 L 320.87 543.61 L 317.76 540.50 L 314.64 540.50 L 311.53 537.38 L 311.53 515.58 L 308.41 512.46 L 308.41 500.00 L 305.30 496.88 L 305.30 484.42 L 302.18 481.31 L 302.18 475.08 L 299.07 471.96 L 299.07 465.73 L 295.95 462.62 L 295.95 456.39 L 292.83 453.27 L 292.83 450.16 L 289.72 447.04 L 289.72 443.93 L 286.60 440.81 L 286.60 437.69 L 283.49 434.58 L 283.49 428.35 L 277.26 422.12 L 277.26 419.00 L 274.14 415.89 L 274.14 412.77 L 267.91 406.54 L 267.91 403.43 L 261.68 397.20 L 261.68 394.08 L 249.22 381.62 L 249.22 378.50 L 227.41 356.70 L 224.30 356.70 L 211.84 344.24 L 208.72 344.24 L 202.49 338.01 L 199.38 338.01 L 190.03 328.66 L 186.92 328.66 L 183.80 325.55 L 180.69 325.55 L 174.45 319.31 L 171.34 319.31 L 168.22 316.20 L 165.11 316.20 L 161.99 313.08 L 158.88 313.08 L 155.76 309.97 L 152.65 309.97 L 149.53 306.85 L 146.42 306.85 L 143.30 303.74 L 140.19 303.74 L 137.07 300.62 L 133.96 300.62 L 130.84 297.51 L 124.61 297.51 L 121.50 294.39 L 115.26 294.39 L 112.15 291.28 L 109.03 291.28 L 105.92 288.16 L 96.57 288.16 L 93.46 285.05 Z" fill="#3dae46" />
  <path d="M 866.04 281.93 L 866.04 288.16 L 862.93 291.28 L 862.93 300.62 L 859.81 303.74 L 859.81 309.97 L 856.70 313.08 L 856.70 316.20 L 853.58 319.31 L 853.58 325.55 L 850.47 328.66 L 850.47 334.89 L 847.35 338.01 L 847.35 341.12 L 844.24 344.24 L 844.24 347.35 L 841.12 350.47 L 841.12 353.58 L 838.01 356.70 L 838.01 359.81 L 831.78 366.04 L 831.78 369.16 L 825.55 375.39 L 825.55 378.50 L 819.31 384.74 L 819.31 387.85 L 813.08 394.08 L 813.08 397.20 L 794.39 415.89 L 794.39 419.00 L 735.20 478.19 L 732.09 478.19 L 719.63 490.65 L 716.51 490.65 L 710.28 496.88 L 707.17 496.88 L 700.93 503.12 L 697.82 503.12 L 688.47 512.46 L 685.36 512.46 L 682.24 515.58 L 679.13 515.58 L 672.90 521.81 L 669.78 521.81 L 666.67 524.92 L 663.55 524.92 L 660.44 528.04 L 657.32 528.04 L 654.21 531.15 L 651.09 531.15 L 647.98 534.27 L 644.86 534.27 L 641.74 537.38 L 635.51 537.38 L 632.40 540.50 L 629.28 540.50 L 626.17 543.61 L 619.94 543.61 L 616.82 546.73 L 610.59 546.73 L 607.48 549.84 L 604.36 549.84 L 607.48 552.96 L 607.48 562.31 L 610.59 565.42 L 610.59 571.65 L 613.71 574.77 L 613.71 581.00 L 616.82 584.11 L 616.82 590.34 L 619.94 593.46 L 619.94 599.69 L 623.05 602.80 L 623.05 609.03 L 626.17 612.15 L 629.28 612.15 L 632.40 609.03 L 635.51 609.03 L 638.63 605.92 L 641.74 605.92 L 644.86 602.80 L 651.09 602.80 L 654.21 599.69 L 657.32 599.69 L 660.44 596.57 L 663.55 596.57 L 666.67 593.46 L 669.78 593.46 L 672.90 590.34 L 679.13 590.34 L 682.24 587.23 L 685.36 587.23 L 688.47 584.11 L 691.59 584.11 L 694.70 581.00 L 700.93 581.00 L 704.05 577.88 L 707.17 577.88 L 710.28 574.77 L 713.40 574.77 L 716.51 571.65 L 722.74 571.65 L 725.86 568.54 L 732.09 568.54 L 735.20 565.42 L 766.36 565.42 L 769.47 568.54 L 781.93 568.54 L 785.05 571.65 L 794.39 571.65 L 797.51 574.77 L 803.74 574.77 L 806.85 577.88 L 813.08 577.88 L 816.20 581.00 L 819.31 581.00 L 822.43 584.11 L 828.66 584.11 L 831.78 587.23 L 834.89 587.23 L 838.01 590.34 L 841.12 590.34 L 844.24 593.46 L 847.35 593.46 L 850.47 596.57 L 853.58 596.57 L 859.81 602.80 L 862.93 602.80 L 866.04 605.92 L 869.16 605.92 L 875.39 612.15 L 878.50 612.15 L 884.74 618.38 L 887.85 618.38 L 897.20 627.73 L 900.31 627.73 L 940.81 668.22 L 947.04 661.99 L 950.16 661.99 L 962.62 649.53 L 965.73 649.53 L 978.19 637.07 L 981.31 637.07 L 984.42 633.96 L 984.42 627.73 L 981.31 624.61 L 981.31 621.50 L 975.08 615.26 L 975.08 612.15 L 959.50 596.57 L 959.50 593.46 L 947.04 581.00 L 943.93 581.00 L 934.58 571.65 L 931.46 571.65 L 922.12 562.31 L 919.00 562.31 L 912.77 556.07 L 909.66 556.07 L 906.54 552.96 L 903.43 552.96 L 900.31 549.84 L 897.20 549.84 L 890.97 543.61 L 887.85 543.61 L 884.74 540.50 L 878.50 540.50 L 875.39 537.38 L 872.27 537.38 L 869.16 534.27 L 866.04 534.27 L 862.93 531.15 L 856.70 531.15 L 853.58 528.04 L 850.47 528.04 L 847.35 524.92 L 838.01 524.92 L 834.89 521.81 L 828.66 521.81 L 825.55 518.69 L 819.31 518.69 L 816.20 515.58 L 809.97 515.58 L 806.85 512.46 L 806.85 506.23 L 844.24 468.85 L 844.24 465.73 L 853.58 456.39 L 853.58 453.27 L 862.93 443.93 L 862.93 440.81 L 869.16 434.58 L 869.16 431.46 L 875.39 425.23 L 875.39 422.12 L 881.62 415.89 L 881.62 412.77 L 884.74 409.66 L 884.74 406.54 L 887.85 403.43 L 887.85 400.31 L 894.08 394.08 L 894.08 390.97 L 897.20 387.85 L 897.20 384.74 L 900.31 381.62 L 900.31 378.50 L 903.43 375.39 L 903.43 372.27 L 906.54 369.16 L 906.54 366.04 L 909.66 362.93 L 909.66 359.81 L 912.77 356.70 L 912.77 353.58 L 915.89 350.47 L 915.89 344.24 L 919.00 341.12 L 919.00 334.89 L 922.12 331.78 L 922.12 325.55 L 925.23 322.43 L 925.23 316.20 L 928.35 313.08 L 928.35 297.51 L 925.23 297.51 L 922.12 294.39 L 912.77 294.39 L 909.66 291.28 L 906.54 291.28 L 903.43 288.16 L 894.08 288.16 L 890.97 285.05 L 881.62 285.05 L 878.50 281.93 Z" fill="#3dae46" />
  <path d="M 196.26 172.90 L 193.15 176.01 L 193.15 182.24 L 196.26 185.36 L 196.26 210.28 L 199.38 213.40 L 199.38 225.86 L 202.49 228.97 L 202.49 238.32 L 205.61 241.43 L 205.61 247.66 L 208.72 250.78 L 208.72 257.01 L 211.84 260.12 L 211.84 263.24 L 214.95 266.36 L 214.95 272.59 L 218.07 275.70 L 218.07 278.82 L 221.18 281.93 L 221.18 285.05 L 227.41 291.28 L 227.41 294.39 L 230.53 297.51 L 230.53 300.62 L 233.64 303.74 L 233.64 306.85 L 239.88 313.08 L 239.88 316.20 L 242.99 319.31 L 242.99 322.43 L 258.57 338.01 L 258.57 341.12 L 292.83 375.39 L 295.95 375.39 L 314.64 394.08 L 317.76 394.08 L 330.22 406.54 L 333.33 406.54 L 348.91 422.12 L 352.02 422.12 L 361.37 431.46 L 364.49 431.46 L 380.06 447.04 L 383.18 447.04 L 398.75 462.62 L 401.87 462.62 L 414.33 475.08 L 417.45 475.08 L 426.79 484.42 L 429.91 484.42 L 436.14 490.65 L 442.37 490.65 L 461.06 471.96 L 461.06 468.85 L 464.17 465.73 L 467.29 465.73 L 470.40 462.62 L 470.40 459.50 L 482.87 447.04 L 457.94 422.12 L 457.94 415.89 L 454.83 412.77 L 454.83 406.54 L 451.71 403.43 L 451.71 356.70 L 454.83 353.58 L 454.83 341.12 L 457.94 338.01 L 457.94 328.66 L 461.06 325.55 L 461.06 319.31 L 464.17 316.20 L 464.17 313.08 L 467.29 309.97 L 467.29 306.85 L 470.40 303.74 L 470.40 300.62 L 473.52 297.51 L 473.52 294.39 L 476.64 291.28 L 476.64 288.16 L 482.87 281.93 L 482.87 278.82 L 485.98 275.70 L 485.98 272.59 L 495.33 263.24 L 495.33 260.12 L 510.90 244.55 L 510.90 241.43 L 514.02 238.32 L 510.90 235.20 L 510.90 232.09 L 501.56 222.74 L 501.56 219.63 L 489.10 207.17 L 489.10 204.05 L 479.75 194.70 L 473.52 194.70 L 467.29 200.93 L 464.17 200.93 L 445.48 219.63 L 445.48 222.74 L 439.25 228.97 L 439.25 232.09 L 433.02 238.32 L 433.02 241.43 L 429.91 244.55 L 429.91 247.66 L 423.68 253.89 L 423.68 257.01 L 420.56 260.12 L 420.56 263.24 L 417.45 266.36 L 417.45 272.59 L 414.33 275.70 L 414.33 278.82 L 411.21 281.93 L 411.21 285.05 L 408.10 288.16 L 408.10 294.39 L 404.98 297.51 L 404.98 303.74 L 401.87 306.85 L 401.87 313.08 L 398.75 316.20 L 398.75 325.55 L 395.64 328.66 L 395.64 338.01 L 392.52 341.12 L 392.52 353.58 L 389.41 356.70 L 389.41 359.81 L 386.29 362.93 L 383.18 359.81 L 380.06 359.81 L 370.72 350.47 L 367.60 350.47 L 342.68 325.55 L 339.56 325.55 L 333.33 319.31 L 333.33 316.20 L 330.22 316.20 L 317.76 303.74 L 317.76 300.62 L 314.64 300.62 L 311.53 297.51 L 311.53 294.39 L 299.07 281.93 L 299.07 278.82 L 289.72 269.47 L 289.72 266.36 L 286.60 263.24 L 286.60 260.12 L 280.37 253.89 L 280.37 250.78 L 277.26 247.66 L 277.26 244.55 L 274.14 241.43 L 274.14 235.20 L 271.03 232.09 L 271.03 225.86 L 267.91 222.74 L 267.91 216.51 L 264.80 213.40 L 264.80 200.93 L 261.68 197.82 L 261.68 176.01 L 258.57 172.90 Z" fill="#3dae46" />
  <path d="M 364.49 129.28 L 361.37 132.40 L 358.26 132.40 L 348.91 141.74 L 345.79 141.74 L 339.56 147.98 L 339.56 151.09 L 333.33 157.32 L 333.33 160.44 L 330.22 163.55 L 330.22 166.67 L 327.10 169.78 L 327.10 176.01 L 323.99 179.13 L 323.99 191.59 L 320.87 194.70 L 320.87 213.40 L 323.99 216.51 L 323.99 225.86 L 327.10 228.97 L 327.10 235.20 L 330.22 238.32 L 330.22 241.43 L 333.33 244.55 L 333.33 247.66 L 339.56 253.89 L 339.56 257.01 L 348.91 266.36 L 352.02 266.36 L 355.14 263.24 L 361.37 263.24 L 370.72 253.89 L 373.83 253.89 L 380.06 247.66 L 380.06 244.55 L 389.41 235.20 L 389.41 232.09 L 392.52 228.97 L 392.52 222.74 L 395.64 219.63 L 395.64 210.28 L 398.75 207.17 L 398.75 179.13 L 395.64 176.01 L 395.64 166.67 L 392.52 163.55 L 392.52 157.32 L 389.41 154.21 L 389.41 151.09 L 386.29 147.98 L 386.29 144.86 L 370.72 129.28 Z" fill="#3dae46" />
  <path d="M 654.21 104.36 L 644.86 113.71 L 644.86 116.82 L 638.63 123.05 L 638.63 126.17 L 635.51 129.28 L 635.51 132.40 L 632.40 135.51 L 632.40 138.63 L 629.28 141.74 L 629.28 154.21 L 626.17 157.32 L 626.17 182.24 L 629.28 185.36 L 629.28 191.59 L 632.40 194.70 L 632.40 204.05 L 638.63 210.28 L 638.63 213.40 L 644.86 219.63 L 644.86 222.74 L 647.98 222.74 L 651.09 225.86 L 651.09 228.97 L 654.21 228.97 L 663.55 238.32 L 666.67 238.32 L 669.78 241.43 L 672.90 241.43 L 679.13 235.20 L 682.24 235.20 L 685.36 232.09 L 685.36 228.97 L 694.70 219.63 L 694.70 213.40 L 697.82 210.28 L 697.82 204.05 L 700.93 200.93 L 700.93 154.21 L 697.82 151.09 L 697.82 144.86 L 694.70 141.74 L 694.70 138.63 L 691.59 135.51 L 691.59 132.40 L 688.47 129.28 L 688.47 126.17 L 669.78 107.48 L 666.67 107.48 L 663.55 104.36 Z" fill="#3dae46" />
  <path d="M 501.56 79.44 L 495.33 85.67 L 495.33 88.79 L 489.10 95.02 L 489.10 98.13 L 485.98 101.25 L 485.98 104.36 L 479.75 110.59 L 479.75 113.71 L 476.64 116.82 L 476.64 119.94 L 470.40 126.17 L 470.40 132.40 L 473.52 132.40 L 485.98 144.86 L 489.10 144.86 L 498.44 154.21 L 498.44 157.32 L 517.13 176.01 L 517.13 179.13 L 520.25 182.24 L 520.25 185.36 L 526.48 191.59 L 526.48 194.70 L 529.60 197.82 L 529.60 200.93 L 532.71 204.05 L 532.71 207.17 L 535.83 210.28 L 535.83 213.40 L 538.94 216.51 L 538.94 222.74 L 542.06 225.86 L 542.06 232.09 L 545.17 235.20 L 545.17 244.55 L 548.29 247.66 L 548.29 260.12 L 551.40 263.24 L 551.40 285.05 L 554.52 288.16 L 554.52 334.89 L 551.40 338.01 L 551.40 369.16 L 548.29 372.27 L 548.29 387.85 L 545.17 390.97 L 545.17 406.54 L 542.06 409.66 L 542.06 419.00 L 538.94 422.12 L 538.94 428.35 L 489.10 478.19 L 489.10 481.31 L 485.98 484.42 L 482.87 484.42 L 482.87 487.54 L 464.17 506.23 L 464.17 509.35 L 451.71 521.81 L 451.71 524.92 L 445.48 531.15 L 445.48 534.27 L 439.25 540.50 L 439.25 543.61 L 436.14 546.73 L 436.14 549.84 L 429.91 556.07 L 429.91 559.19 L 426.79 562.31 L 426.79 565.42 L 423.68 568.54 L 423.68 571.65 L 420.56 574.77 L 420.56 581.00 L 417.45 584.11 L 417.45 590.34 L 414.33 593.46 L 414.33 599.69 L 411.21 602.80 L 411.21 612.15 L 408.10 615.26 L 408.10 627.73 L 404.98 630.84 L 404.98 658.88 L 401.87 661.99 L 401.87 690.03 L 404.98 693.15 L 404.98 721.18 L 408.10 724.30 L 408.10 736.76 L 411.21 739.88 L 411.21 749.22 L 414.33 752.34 L 414.33 761.68 L 417.45 764.80 L 417.45 774.14 L 420.56 777.26 L 420.56 783.49 L 423.68 786.60 L 423.68 792.83 L 426.79 795.95 L 426.79 802.18 L 429.91 805.30 L 429.91 808.41 L 433.02 811.53 L 433.02 817.76 L 439.25 823.99 L 439.25 827.10 L 445.48 833.33 L 448.60 833.33 L 461.06 820.87 L 461.06 817.76 L 467.29 811.53 L 467.29 808.41 L 473.52 802.18 L 473.52 799.07 L 479.75 792.83 L 479.75 789.72 L 482.87 786.60 L 482.87 783.49 L 485.98 780.37 L 485.98 758.57 L 482.87 755.45 L 482.87 749.22 L 479.75 746.11 L 479.75 736.76 L 476.64 733.64 L 476.64 724.30 L 473.52 721.18 L 473.52 705.61 L 470.40 702.49 L 470.40 649.53 L 473.52 646.42 L 473.52 630.84 L 476.64 627.73 L 476.64 621.50 L 479.75 618.38 L 479.75 609.03 L 482.87 605.92 L 482.87 602.80 L 485.98 599.69 L 485.98 593.46 L 489.10 590.34 L 489.10 587.23 L 492.21 584.11 L 492.21 581.00 L 498.44 574.77 L 498.44 571.65 L 504.67 565.42 L 504.67 562.31 L 510.90 556.07 L 510.90 552.96 L 526.48 537.38 L 526.48 534.27 L 563.86 496.88 L 566.98 496.88 L 582.55 481.31 L 585.67 481.31 L 585.67 478.19 L 588.79 475.08 L 591.90 475.08 L 598.13 468.85 L 601.25 468.85 L 613.71 456.39 L 616.82 456.39 L 629.28 443.93 L 632.40 443.93 L 641.74 434.58 L 644.86 434.58 L 657.32 422.12 L 660.44 422.12 L 672.90 409.66 L 676.01 409.66 L 688.47 397.20 L 691.59 397.20 L 716.51 372.27 L 719.63 372.27 L 725.86 366.04 L 725.86 362.93 L 728.97 359.81 L 732.09 359.81 L 735.20 356.70 L 735.20 353.58 L 760.12 328.66 L 760.12 325.55 L 766.36 319.31 L 766.36 316.20 L 772.59 309.97 L 772.59 306.85 L 778.82 300.62 L 778.82 297.51 L 781.93 294.39 L 781.93 291.28 L 785.05 288.16 L 785.05 285.05 L 788.16 281.93 L 788.16 278.82 L 791.28 275.70 L 791.28 272.59 L 794.39 269.47 L 794.39 263.24 L 797.51 260.12 L 797.51 257.01 L 800.62 253.89 L 800.62 244.55 L 803.74 241.43 L 803.74 235.20 L 806.85 232.09 L 806.85 225.86 L 809.97 222.74 L 809.97 204.05 L 813.08 200.93 L 813.08 172.90 L 750.78 172.90 L 747.66 176.01 L 747.66 185.36 L 744.55 188.47 L 744.55 204.05 L 741.43 207.17 L 741.43 213.40 L 738.32 216.51 L 738.32 225.86 L 735.20 228.97 L 735.20 235.20 L 732.09 238.32 L 732.09 241.43 L 728.97 244.55 L 728.97 247.66 L 725.86 250.78 L 725.86 253.89 L 722.74 257.01 L 722.74 260.12 L 716.51 266.36 L 716.51 269.47 L 713.40 272.59 L 713.40 275.70 L 704.05 285.05 L 704.05 288.16 L 688.47 303.74 L 688.47 306.85 L 669.78 325.55 L 666.67 325.55 L 663.55 328.66 L 663.55 331.78 L 660.44 334.89 L 657.32 334.89 L 644.86 347.35 L 641.74 347.35 L 635.51 353.58 L 632.40 353.58 L 619.94 366.04 L 616.82 366.04 L 613.71 362.93 L 613.71 263.24 L 610.59 260.12 L 610.59 241.43 L 607.48 238.32 L 607.48 225.86 L 604.36 222.74 L 604.36 216.51 L 601.25 213.40 L 601.25 207.17 L 598.13 204.05 L 598.13 197.82 L 595.02 194.70 L 595.02 188.47 L 591.90 185.36 L 591.90 182.24 L 588.79 179.13 L 588.79 176.01 L 585.67 172.90 L 585.67 169.78 L 582.55 166.67 L 582.55 163.55 L 579.44 160.44 L 579.44 157.32 L 573.21 151.09 L 573.21 147.98 L 570.09 144.86 L 570.09 141.74 L 563.86 135.51 L 563.86 132.40 L 551.40 119.94 L 551.40 116.82 L 526.48 91.90 L 523.36 91.90 L 517.13 85.67 L 514.02 85.67 L 507.79 79.44 Z" fill="#3dae46" />
</svg>